HIERARCHY
ROOT reference
{
  OFFSET 0 0 0
  CHANNELS 6 Xposition Yposition Zposition Zrotation Xrotation Yrotation
  JOINT Hips
  {
    OFFSET 26.8642 69.0869 116.64
    CHANNELS 6 Xposition Yposition Zposition Zrotation Xrotation Yrotation
    JOINT Spine
    {
      OFFSET 0 7.3847 0
      CHANNELS 6 Xposition Yposition Zposition Zrotation Xrotation Yrotation
      JOINT Spine1
      {
        OFFSET 0 22.52 0
        CHANNELS 6 Xposition Yposition Zposition Zrotation Xrotation Yrotation
        JOINT Neck
        {
          OFFSET 0 22.4276 2.03887
          CHANNELS 6 Xposition Yposition Zposition Zrotation Xrotation Yrotation
          JOINT Head
          {
            OFFSET 0 12.608 -1.80115
            CHANNELS 6 Xposition Yposition Zposition Zrotation Xrotation Yrotation
            End Site
            {
              OFFSET 0 22.5143 0
            }
          }
        }
        JOINT LeftShoulder
        {
          OFFSET 3.70204 19.5563 -0.329131
          CHANNELS 6 Xposition Yposition Zposition Zrotation Xrotation Yrotation
          JOINT LeftArm
          {
            OFFSET 13.7086 0 0
            CHANNELS 6 Xposition Yposition Zposition Zrotation Xrotation Yrotation
            JOINT LeftForeArm
            {
              OFFSET 25.9307 0 0
              CHANNELS 6 Xposition Yposition Zposition Zrotation Xrotation Yrotation
              JOINT LeftHand
              {
                OFFSET 23.5097 0 0
                CHANNELS 6 Xposition Yposition Zposition Zrotation Xrotation Yrotation
                End Site
                {
                  OFFSET 13.5086 0 0
                }
              }
            }
          }
        }
        JOINT RightShoulder
        {
          OFFSET -3.48695 19.5563 -0.329131
          CHANNELS 6 Xposition Yposition Zposition Zrotation Xrotation Yrotation
          JOINT RightArm
          {
            OFFSET -13.7086 0 0
            CHANNELS 6 Xposition Yposition Zposition Zrotation Xrotation Yrotation
            JOINT RightForeArm
            {
              OFFSET -25.9307 0 0
              CHANNELS 6 Xposition Yposition Zposition Zrotation Xrotation Yrotation
              JOINT RightHand
              {
                OFFSET -23.5097 0 0
                CHANNELS 6 Xposition Yposition Zposition Zrotation Xrotation Yrotation
                End Site
                {
                  OFFSET -13.5086 0 0
                }
              }
            }
          }
        }
      }
    }
    JOINT LeftUpLeg
    {
      OFFSET 9.00574 0 0
      CHANNELS 6 Xposition Yposition Zposition Zrotation Xrotation Yrotation
      JOINT LeftLeg
      {
        OFFSET 0 -37.3387 0
        CHANNELS 6 Xposition Yposition Zposition Zrotation Xrotation Yrotation
        JOINT LeftFoot
        {
          OFFSET 0 -36.155 0
          CHANNELS 6 Xposition Yposition Zposition Zrotation Xrotation Yrotation
          JOINT LeftToeBase
          {
            OFFSET 0 -5.85373 13.5086
            CHANNELS 6 Xposition Yposition Zposition Zrotation Xrotation Yrotation
            End Site
            {
              OFFSET 0 0 3.60229
            }
          }
        }
      }
    }
    JOINT RightUpLeg
    {
      OFFSET -9.00574 0 0
      CHANNELS 6 Xposition Yposition Zposition Zrotation Xrotation Yrotation
      JOINT RightLeg
      {
        OFFSET 0 -37.3387 0
        CHANNELS 6 Xposition Yposition Zposition Zrotation Xrotation Yrotation
        JOINT RightFoot
        {
          OFFSET 0 -36.155 0
          CHANNELS 6 Xposition Yposition Zposition Zrotation Xrotation Yrotation
          JOINT RightToeBase
          {
            OFFSET 0 -5.85373 13.5086
            CHANNELS 6 Xposition Yposition Zposition Zrotation Xrotation Yrotation
            End Site
            {
              OFFSET 0 0 3.60229
            }
          }
        }
      }
    }
  }
}
MOTION
Frames:	6
Frame Time:	0.00833333
0 0 0 0 0 -0 -4.89012 75.4769 -189.635 -0.165207 3.78728 3.4288 0 7.3847 0 -2.51265 -5.68739 0.324233 0 22.52 0 1.85842 -3.46484 0.504614 0 22.4276 2.03887 7.64795 21.7897 1.3555 0 12.608 -1.80115 -5.96804 0.71508 0.999824 3.70204 19.5563 -0.329131 19.4521 -0.770431 -5.85806 13.7086 0 0 -29.8715 -0.384615 2.52667 25.9307 2.84217e-014 0 3.85983 -3.50287 1.49057 23.5097 0 2.84217e-014 -5.68764 -3.33427 -4.40929 -3.48695 19.5563 -0.329131 -14.825 -2.04072 -3.15757 -13.7086 0 0 20.555 -0.308563 3.46199 -25.9307 0 0 -1.89251 1.41024 1.30208 -23.5097 -2.84217e-014 0 2.64465 1.42688 -0.210432 9.00574 0 0 -0.537192 -9.46299 2.52895 0 -37.3387 0 -2.2926 16.2382 7.5134 0 -36.155 0 1.91909 -9.61738 -3.15173 0 -5.85373 13.5086 -5.51738e-033 -1.98785e-016 -1.59028e-015 -9.00574 7.10543e-015 -5.68434e-014 -4.14135 -3.64851 -2.68692 -5.32907e-015 -37.3387 0 8.15408 12.346 -5.27926 0 -36.155 0 -4.25576 -11.1351 -19.4234 0 -5.85373 13.5086 9.93923e-017 1.98785e-016 -3.18055e-015 
0 0 0 0 0 -0 -4.90982 75.4769 -189.635 -0.164299 3.78728 3.4288 0 7.3847 0 -2.51721 -5.68662 0.321221 0 22.52 2.84217e-014 1.84693 -3.46484 0.502192 1.77636e-015 22.4276 2.03887 7.63185 21.7728 1.36045 0 12.608 -1.80115 -5.94155 0.734655 1.00892 3.70204 19.5563 -0.329131 19.4603 -0.778051 -5.85563 13.7086 -2.84217e-014 0 -29.7605 -0.763885 2.52059 25.9307 0 2.84217e-014 3.62752 -3.30239 1.50905 23.5097 2.84217e-014 0 -5.55339 -3.13566 -4.42612 -3.48695 19.5563 -0.329131 -14.8326 -2.04066 -3.16031 -13.7086 0 0 20.6076 -0.044043 3.48906 -25.9307 0 0 -2.01772 1.29549 1.252 -23.5097 0 2.84217e-014 2.75588 1.31275 -0.200285 9.00574 -7.10543e-015 0 -0.537167 -9.463 2.52874 3.55271e-015 -37.3387 -2.84217e-014 -2.28785 16.2376 7.52984 0 -36.155 0 1.88772 -9.61722 -3.16918 0 -5.85373 13.5086 4.96962e-017 -1.98785e-016 1.59028e-015 -9.00574 -7.10543e-015 0 -4.14135 -3.64851 -2.68692 0 -37.3387 2.84217e-014 8.15489 12.3524 -5.28032 0 -36.155 0 -4.27665 -11.1436 -19.4103 -1.42109e-014 -5.85373 13.5086 3.97569e-016 -1.98785e-016 -0 
0 0 0 0 0 -0 -4.92195 75.4769 -189.635 -0.157134 3.78728 3.4288 -8.88178e-016 7.3847 0 -2.57622 -5.6751 0.289626 0 22.52 0 1.95829 -3.46486 0.476823 -1.77636e-015 22.4276 2.03887 7.57118 21.7575 1.38878 -7.10543e-015 12.608 -1.80115 -5.96876 0.78091 1.03281 3.70204 19.5563 -0.329131 19.3917 -0.744461 -5.79071 13.7086 0 0 -29.7728 -0.748958 2.50641 25.9307 -2.84217e-014 2.84217e-014 3.64833 -3.31577 1.51229 23.5097 2.84217e-014 0 -5.53964 -3.15045 -4.42752 -3.48695 19.5563 -0.329131 -14.8795 -1.90243 -3.1616 -13.7086 -2.84217e-014 2.84217e-014 20.6066 -0.130093 3.63093 -25.9307 2.84217e-014 0 -2.01832 1.28128 1.21723 -23.5097 0 0 2.76512 1.29836 -0.182979 9.00574 7.10543e-015 0 -0.535434 -9.46299 2.52952 0 -37.3387 0 -2.28697 16.2396 7.51645 0 -36.155 2.84217e-014 1.88654 -9.61741 -3.1478 0 -5.85373 13.5086 2.48481e-017 -7.95139e-016 -0 -9.00574 7.10543e-015 0 -4.13978 -3.6485 -2.69159 0 -37.3387 0 8.153 12.3585 -5.269 0 -36.155 0 -4.27984 -11.1536 -19.4137 0 -5.85373 13.5086 -9.93923e-017 0 -3.18055e-015 
0 0 0 0 0 -0 -4.93605 75.4769 -189.635 -0.150721 3.78728 3.4288 -1.77636e-015 7.3847 0 -2.57755 -5.67528 0.282628 1.77636e-015 22.52 0 1.96364 -3.46765 0.470073 0 22.4276 2.03887 7.56078 21.7491 1.39095 7.10543e-015 12.608 -1.80115 -5.96179 0.793482 1.03605 3.70204 19.5563 -0.329131 19.3893 -0.765085 -5.78892 13.7086 0 0 -29.7833 -0.735931 2.5182 25.9307 -2.84217e-014 2.84217e-014 3.65633 -3.31877 1.51539 23.5097 0 0 -5.53835 -3.15824 -4.4258 -3.48695 19.5563 -0.329131 -14.8854 -1.88355 -3.18228 -13.7086 0 0 20.6086 -0.131847 3.67298 -25.9307 0 2.84217e-014 -2.02166 1.2826 1.20529 -23.5097 0 2.84217e-014 2.76009 1.29925 -0.199885 9.00574 2.13163e-014 0 -0.533441 -9.46229 2.53175 0 -37.3387 -2.84217e-014 -2.28256 16.2509 7.51733 0 -36.155 -2.84217e-014 1.88908 -9.61733 -3.15663 0 -5.85373 13.5086 -2.48481e-017 1.98785e-016 3.18055e-015 -9.00574 -7.10543e-015 -2.84217e-014 -4.13703 -3.64848 -2.69983 0 -37.3387 0 8.15792 12.3662 -5.27559 3.55271e-015 -36.155 -2.84217e-014 -4.27956 -11.1638 -19.3961 0 -5.85373 13.5086 -1.98785e-016 0 -0 
0 0 0 0 0 -0 -4.94877 75.4769 -189.635 -0.146406 3.78728 3.4288 0 7.3847 2.84217e-014 -2.57841 -5.67638 0.278985 -1.77636e-015 22.52 0 1.96179 -3.45665 0.466263 1.77636e-015 22.4276 2.03887 7.54691 21.7397 1.39289 0 12.608 -1.80115 -5.94978 0.814923 1.03947 3.70204 19.5563 -0.329131 19.3896 -0.752703 -5.78749 13.7086 0 0 -29.784 -0.754101 2.50709 25.9307 2.84217e-014 2.84217e-014 3.65507 -3.33303 1.51835 23.5097 -2.84217e-014 0 -5.55502 -3.16651 -4.43683 -3.48695 19.5563 -0.329131 -14.8958 -1.89382 -3.17053 -13.7086 0 0 20.609 -0.12893 3.66074 -25.9307 2.84217e-014 2.84217e-014 -2.02281 1.28239 1.20872 -23.5097 2.84217e-014 2.84217e-014 2.78491 1.29872 -0.208354 9.00574 7.10543e-015 2.84217e-014 -0.532101 -9.46219 2.53088 0 -37.3387 0 -2.27775 16.256 7.55898 0 -36.155 0 1.85624 -9.61697 -3.19676 0 -5.85373 13.5086 2.48481e-017 0 1.59028e-015 -9.00574 7.10543e-015 0 -4.13361 -3.64844 -2.70995 0 -37.3387 0 8.16484 12.3722 -5.27779 0 -36.155 0 -4.31194 -11.1724 -19.3995 1.42109e-014 -5.85373 13.5086 -3.97569e-016 1.98785e-016 -3.18055e-015 
0 0 0 0 0 -0 -4.96205 75.4769 -189.634 -0.140573 3.78728 3.4288 0 7.3847 0 -2.57935 -5.67798 0.274701 0 22.52 0 1.95892 -3.4492 0.46196 1.77636e-015 22.4276 2.03887 7.55204 21.7458 1.39526 0 12.608 -1.80115 -5.94564 0.814942 1.04318 3.70204 19.5563 -0.329131 19.3885 -0.753862 -5.78646 13.7086 -2.84217e-014 0 -29.7972 -0.740713 2.51829 25.9307 2.84217e-014 0 3.67312 -3.34677 1.51964 23.5097 -2.84217e-014 2.84217e-014 -5.56017 -3.17957 -4.44672 -3.48695 19.5563 -0.329131 -14.8947 -1.90029 -3.16491 -13.7086 0 0 20.6073 -0.115386 3.66138 -25.9307 0 0 -2.03659 1.2835 1.20653 -23.5097 0 0 2.81295 1.29969 -0.211925 9.00574 7.10543e-015 0 -0.529834 -9.46569 2.53704 0 -37.3387 -2.84217e-014 -2.28065 16.2605 7.55101 7.10543e-015 -36.155 -2.84217e-014 1.85457 -9.62759 -3.18422 7.10543e-015 -5.85373 13.5086 4.96962e-017 1.98785e-016 1.59028e-015 -9.00574 -7.10543e-015 -2.84217e-014 -4.12516 -3.64844 -2.71234 0 -37.3387 0 8.16222 12.3719 -5.26226 -3.55271e-015 -36.155 0 -4.30522 -11.176 -19.402 1.42109e-014 -5.85373 13.5086 -1.98785e-016 1.98785e-016 6.36111e-015 
